<svg xmlns="http://www.w3.org/2000/svg" xmlns:xlink="http://www.w3.org/1999/xlink" width="500" zoomAndPan="magnify" viewBox="0 0 375 225" height="300" preserveAspectRatio="xMidYMid meet" version="1.0"><defs><filter x="0%" y="0%" width="100%" height="100%" id="21798bc3f5"><feColorMatrix values="0 0 0 0 1 0 0 0 0 1 0 0 0 0 1 0 0 0 1 0" color-interpolation-filters="sRGB"/></filter><mask id="bef91ed35e"><g filter="url(#21798bc3f5)"><rect x="-37.5" width="450" fill="#000000" y="-22.5" height="270" fill-opacity="0.7"/></g></mask><clipPath id="d351aa2e80"><path d="M 31 38 L 188 38 L 188 174 L 31 174 Z M 31 38 " clip-rule="nonzero"/></clipPath><clipPath id="bfe85460b9"><path d="M -1.957031 78.972656 L 64.671875 0.75 L 220.542969 133.515625 L 153.914062 211.738281 Z M -1.957031 78.972656 " clip-rule="nonzero"/></clipPath><clipPath id="a82d2bcecd"><path d="M -1.957031 78.972656 L 64.671875 0.75 L 220.542969 133.515625 L 153.914062 211.738281 Z M -1.957031 78.972656 " clip-rule="nonzero"/></clipPath><clipPath id="13444a5fa0"><rect x="0" width="222" y="0" height="191"/></clipPath><mask id="995a557415"><g filter="url(#21798bc3f5)"><rect x="-37.5" width="450" fill="#000000" y="-22.5" height="270" fill-opacity="0.9"/></g></mask><clipPath id="45d018b518"><path d="M 37 26 L 156 26 L 156 204 L 37 204 Z M 37 26 " clip-rule="nonzero"/></clipPath><clipPath id="0d50746619"><path d="M 1.054688 51.882812 L 90.074219 0.566406 L 192.328125 177.957031 L 103.308594 229.269531 Z M 1.054688 51.882812 " clip-rule="nonzero"/></clipPath><clipPath id="25e7558945"><path d="M 1.054688 51.882812 L 90.074219 0.566406 L 192.328125 177.957031 L 103.308594 229.269531 Z M 1.054688 51.882812 " clip-rule="nonzero"/></clipPath><clipPath id="e68701b74a"><rect x="0" width="193" y="0" height="222"/></clipPath><mask id="ac4c0b29e8"><g filter="url(#21798bc3f5)"><rect x="-37.5" width="450" fill="#000000" y="-22.5" height="270" fill-opacity="0.9"/></g></mask><clipPath id="0e221d4ad3"><path d="M 37 26 L 156 26 L 156 204 L 37 204 Z M 37 26 " clip-rule="nonzero"/></clipPath><clipPath id="714478be84"><path d="M 103.332031 0.507812 L 192.261719 51.984375 L 89.6875 229.1875 L 0.761719 177.710938 Z M 103.332031 0.507812 " clip-rule="nonzero"/></clipPath><clipPath id="6869254093"><path d="M 103.332031 0.507812 L 192.261719 51.984375 L 89.6875 229.1875 L 0.761719 177.710938 Z M 103.332031 0.507812 " clip-rule="nonzero"/></clipPath><clipPath id="8a9e57a227"><rect x="0" width="193" y="0" height="222"/></clipPath><mask id="76270d10b1"><g filter="url(#21798bc3f5)"><rect x="-37.5" width="450" fill="#000000" y="-22.5" height="270" fill-opacity="0.7"/></g></mask><clipPath id="d4a7edcbb2"><path d="M 33 38 L 191 38 L 191 174 L 33 174 Z M 33 38 " clip-rule="nonzero"/></clipPath><clipPath id="557a568afd"><path d="M 66.890625 211.3125 L 0.613281 132.796875 L 157.070312 0.722656 L 223.347656 79.234375 Z M 66.890625 211.3125 " clip-rule="nonzero"/></clipPath><clipPath id="bc72d41585"><path d="M 66.890625 211.3125 L 0.613281 132.796875 L 157.070312 0.722656 L 223.347656 79.234375 Z M 66.890625 211.3125 " clip-rule="nonzero"/></clipPath><clipPath id="746b30458c"><rect x="0" width="222" y="0" height="191"/></clipPath><mask id="d16178ee51"><g filter="url(#21798bc3f5)"><rect x="-37.5" width="450" fill="#000000" y="-22.5" height="270" fill-opacity="0.95"/></g></mask><clipPath id="b919d729c7"><path d="M 0.730469 0.484375 L 103.480469 0.484375 L 103.480469 205.234375 L 0.730469 205.234375 Z M 0.730469 0.484375 " clip-rule="nonzero"/></clipPath><clipPath id="bf8d2a8ac3"><rect x="0" width="105" y="0" height="206"/></clipPath><mask id="69e38f1429"><g filter="url(#21798bc3f5)"><rect x="-37.5" width="450" fill="#000000" y="-22.5" height="270" fill-opacity="0.6"/></g></mask><clipPath id="0cb6c72e4c"><path d="M 2 34 L 188 34 L 188 148 L 2 148 Z M 2 34 " clip-rule="nonzero"/></clipPath><clipPath id="a3399f6788"><path d="M -19.304688 93.726562 L 24.558594 0.8125 L 209.714844 88.214844 L 165.851562 181.132812 Z M -19.304688 93.726562 " clip-rule="nonzero"/></clipPath><clipPath id="743490ccc2"><path d="M -19.304688 93.726562 L 24.558594 0.8125 L 209.714844 88.214844 L 165.851562 181.132812 Z M -19.304688 93.726562 " clip-rule="nonzero"/></clipPath><clipPath id="0020982ebe"><rect x="0" width="210" y="0" height="152"/></clipPath><mask id="ea2b3d9dd1"><g filter="url(#21798bc3f5)"><rect x="-37.5" width="450" fill="#000000" y="-22.5" height="270" fill-opacity="0.6"/></g></mask><clipPath id="b258d60a77"><path d="M 23 34 L 209 34 L 209 148 L 23 148 Z M 23 34 " clip-rule="nonzero"/></clipPath><clipPath id="62b9cc33f4"><path d="M 45.027344 180.847656 L 1.339844 87.847656 L 186.660156 0.789062 L 230.347656 93.789062 Z M 45.027344 180.847656 " clip-rule="nonzero"/></clipPath><clipPath id="65f77d90cd"><path d="M 45.027344 180.847656 L 1.339844 87.847656 L 186.660156 0.789062 L 230.347656 93.789062 Z M 45.027344 180.847656 " clip-rule="nonzero"/></clipPath><clipPath id="077ba9af6e"><rect x="0" width="211" y="0" height="152"/></clipPath></defs><g mask="url(#bef91ed35e)"><g transform="matrix(1, 0, 0, 1, 0, 34)"><g clip-path="url(#13444a5fa0)"><g clip-path="url(#d351aa2e80)"><g clip-path="url(#bfe85460b9)"><g clip-path="url(#a82d2bcecd)"><path fill="#38b6ff" d="M 142.667969 67.058594 C 185.703125 103.71875 187.253906 172.574219 187.253906 172.574219 C 187.253906 172.574219 119.027344 181.996094 75.992188 145.339844 C 32.953125 108.683594 31.40625 39.824219 31.40625 39.824219 C 31.40625 39.824219 99.632812 30.402344 142.667969 67.058594 Z M 142.667969 67.058594 " fill-opacity="1" fill-rule="nonzero"/></g></g></g></g></g></g><g mask="url(#995a557415)"><g transform="matrix(1, 0, 0, 1, 39, 3)"><g clip-path="url(#e68701b74a)"><g clip-path="url(#45d018b518)"><g clip-path="url(#0d50746619)"><g clip-path="url(#25e7558945)"><path fill="#38b6ff" d="M 141.285156 89.210938 C 169.515625 138.1875 147.859375 203.570312 147.859375 203.570312 C 147.859375 203.570312 80.429688 189.542969 52.195312 140.566406 C 23.964844 91.585938 45.621094 26.207031 45.621094 26.207031 C 45.621094 26.207031 113.050781 40.234375 141.285156 89.210938 Z M 141.285156 89.210938 " fill-opacity="1" fill-rule="nonzero"/></g></g></g></g></g></g><g mask="url(#ac4c0b29e8)"><g transform="matrix(1, 0, 0, 1, 141, 3)"><g clip-path="url(#8a9e57a227)"><g clip-path="url(#0e221d4ad3)"><g clip-path="url(#714478be84)"><g clip-path="url(#6869254093)"><path fill="#38b6ff" d="M 141.058594 140.632812 C 112.738281 189.558594 45.28125 203.464844 45.28125 203.464844 C 45.28125 203.464844 23.742188 138.046875 52.066406 89.121094 C 80.386719 40.191406 147.839844 26.285156 147.839844 26.285156 C 147.839844 26.285156 169.378906 91.707031 141.058594 140.632812 Z M 141.058594 140.632812 " fill-opacity="1" fill-rule="nonzero"/></g></g></g></g></g></g><g mask="url(#76270d10b1)"><g transform="matrix(1, 0, 0, 1, 153, 34)"><g clip-path="url(#746b30458c)"><g clip-path="url(#d4a7edcbb2)"><g clip-path="url(#557a568afd)"><g clip-path="url(#bc72d41585)"><path fill="#38b6ff" d="M 78.777344 66.683594 C 121.976562 30.21875 190.160156 39.945312 190.160156 39.945312 C 190.160156 39.945312 188.304688 108.792969 145.105469 145.257812 C 101.90625 181.726562 33.722656 172 33.722656 172 C 33.722656 172 35.578125 103.152344 78.777344 66.683594 Z M 78.777344 66.683594 " fill-opacity="1" fill-rule="nonzero"/></g></g></g></g></g></g><g mask="url(#d16178ee51)"><g transform="matrix(1, 0, 0, 1, 135, 2)"><g clip-path="url(#bf8d2a8ac3)"><g clip-path="url(#b919d729c7)"><path fill="#38b6ff" d="M 103.578125 102.859375 C 103.578125 159.390625 52.164062 205.21875 52.164062 205.21875 C 52.164062 205.21875 0.75 159.390625 0.75 102.859375 C 0.75 46.328125 52.164062 0.5 52.164062 0.5 C 52.164062 0.5 103.578125 46.328125 103.578125 102.859375 Z M 103.578125 102.859375 " fill-opacity="1" fill-rule="nonzero"/></g></g></g></g><g mask="url(#69e38f1429)"><g transform="matrix(1, 0, 0, 1, 0, 73)"><g clip-path="url(#0020982ebe)"><g clip-path="url(#0cb6c72e4c)"><g clip-path="url(#a3399f6788)"><g clip-path="url(#743490ccc2)"><path fill="#38b6ff" d="M 117.175781 44.425781 C 168.300781 68.558594 187.792969 134.613281 187.792969 134.613281 C 187.792969 134.613281 124.402344 161.542969 73.28125 137.410156 C 22.160156 113.28125 2.664062 47.222656 2.664062 47.222656 C 2.664062 47.222656 66.054688 20.292969 117.175781 44.425781 Z M 117.175781 44.425781 " fill-opacity="1" fill-rule="nonzero"/></g></g></g></g></g></g><g mask="url(#ea2b3d9dd1)"><g transform="matrix(1, 0, 0, 1, 164, 73)"><g clip-path="url(#077ba9af6e)"><g clip-path="url(#b258d60a77)"><g clip-path="url(#62b9cc33f4)"><g clip-path="url(#65f77d90cd)"><path fill="#38b6ff" d="M 93.957031 44.230469 C 145.125 20.195312 208.464844 47.246094 208.464844 47.246094 C 208.464844 47.246094 188.847656 113.265625 137.675781 137.300781 C 86.507812 161.335938 23.171875 134.289062 23.171875 134.289062 C 23.171875 134.289062 42.789062 68.265625 93.957031 44.230469 Z M 93.957031 44.230469 " fill-opacity="1" fill-rule="nonzero"/></g></g></g></g></g></g></svg>