<svg xmlns="http://www.w3.org/2000/svg" xmlns:xlink="http://www.w3.org/1999/xlink" width="500" zoomAndPan="magnify" viewBox="0 0 375 374.999991" height="500" preserveAspectRatio="xMidYMid meet" version="1.0"><path fill="#545454" d="M 189.191406 127.949219 L 185.742188 127.949219 C 179.621094 127.949219 174.675781 123 174.675781 116.882812 L 174.675781 19.066406 C 174.675781 12.949219 179.621094 8 185.742188 8 L 189.191406 8 C 195.308594 8 200.253906 12.949219 200.253906 19.066406 L 200.253906 116.820312 C 200.320312 123 195.308594 127.949219 189.191406 127.949219 Z M 185.742188 10.605469 C 181.054688 10.605469 177.28125 14.378906 177.28125 19.066406 L 177.28125 116.820312 C 177.28125 121.503906 181.054688 125.277344 185.742188 125.277344 L 189.191406 125.277344 C 193.875 125.277344 197.648438 121.503906 197.648438 116.820312 L 197.648438 19.066406 C 197.648438 14.378906 193.875 10.605469 189.191406 10.605469 Z M 185.742188 10.605469 " fill-opacity="1" fill-rule="nonzero"/><path fill="#545454" d="M 238.652344 149.816406 C 235.65625 149.816406 232.925781 148.644531 230.84375 146.5625 L 228.367188 144.085938 C 224.074219 139.792969 224.074219 132.761719 228.367188 128.402344 L 297.484375 59.351562 C 299.570312 57.269531 302.367188 56.097656 305.296875 56.097656 C 308.289062 56.097656 311.023438 57.269531 313.105469 59.351562 L 315.578125 61.824219 C 317.660156 63.90625 318.832031 66.707031 318.832031 69.632812 C 318.832031 72.628906 317.660156 75.359375 315.578125 77.445312 L 246.460938 146.625 C 244.378906 148.707031 241.644531 149.816406 238.652344 149.816406 Z M 305.359375 58.699219 C 303.082031 58.699219 300.933594 59.546875 299.375 61.171875 L 230.191406 130.289062 C 226.871094 133.609375 226.871094 138.945312 230.191406 142.265625 L 232.664062 144.738281 C 235.851562 147.925781 241.449219 147.925781 244.640625 144.738281 L 313.757812 75.621094 C 315.320312 74.058594 316.230469 71.910156 316.230469 69.632812 C 316.230469 67.355469 315.382812 65.207031 313.757812 63.644531 L 311.285156 61.171875 C 309.722656 59.613281 307.574219 58.699219 305.359375 58.699219 Z M 305.359375 58.699219 " fill-opacity="1" fill-rule="nonzero"/><path fill="#545454" d="M 355.863281 200.320312 L 258.113281 200.320312 C 251.992188 200.320312 247.046875 195.371094 247.046875 189.253906 L 247.046875 185.804688 C 247.046875 179.6875 251.992188 174.742188 258.113281 174.742188 L 355.863281 174.742188 C 361.980469 174.742188 366.929688 179.6875 366.929688 185.804688 L 366.929688 189.253906 C 366.992188 195.308594 361.980469 200.320312 355.863281 200.320312 Z M 258.113281 177.28125 C 253.425781 177.28125 249.652344 181.054688 249.652344 185.742188 L 249.652344 189.191406 C 249.652344 193.875 253.425781 197.648438 258.113281 197.648438 L 355.863281 197.648438 C 360.550781 197.648438 364.324219 193.875 364.324219 189.191406 L 364.324219 185.742188 C 364.324219 181.054688 360.550781 177.28125 355.863281 177.28125 Z M 258.113281 177.28125 " fill-opacity="1" fill-rule="nonzero"/><path fill="#545454" d="M 305.359375 318.832031 C 302.367188 318.832031 299.632812 317.660156 297.550781 315.578125 L 228.367188 246.460938 C 224.074219 242.167969 224.074219 235.136719 228.367188 230.777344 L 230.84375 228.304688 C 232.925781 226.222656 235.722656 225.050781 238.652344 225.050781 C 241.644531 225.050781 244.378906 226.222656 246.460938 228.304688 L 315.578125 297.421875 C 317.660156 299.503906 318.832031 302.300781 318.832031 305.230469 C 318.832031 308.222656 317.660156 310.957031 315.578125 313.039062 L 313.105469 315.515625 C 311.089844 317.726562 308.289062 318.832031 305.359375 318.832031 Z M 238.652344 227.71875 C 236.375 227.71875 234.226562 228.5625 232.664062 230.191406 L 230.191406 232.664062 C 226.871094 235.984375 226.871094 241.320312 230.191406 244.640625 L 299.308594 313.757812 C 302.496094 316.945312 308.09375 316.945312 311.285156 313.757812 L 313.757812 311.285156 C 315.320312 309.722656 316.230469 307.574219 316.230469 305.296875 C 316.230469 303.019531 315.382812 300.871094 313.757812 299.308594 L 244.640625 230.191406 C 243.078125 228.628906 240.929688 227.71875 238.652344 227.71875 Z M 238.652344 227.71875 " fill-opacity="1" fill-rule="nonzero"/><path fill="#545454" d="M 189.191406 366.992188 L 185.742188 366.992188 C 179.621094 366.992188 174.675781 362.046875 174.675781 355.929688 L 174.675781 258.113281 C 174.675781 251.992188 179.621094 247.046875 185.742188 247.046875 L 189.191406 247.046875 C 195.308594 247.046875 200.253906 251.992188 200.253906 258.113281 L 200.253906 355.863281 C 200.320312 361.980469 195.308594 366.992188 189.191406 366.992188 Z M 185.742188 249.652344 C 181.054688 249.652344 177.28125 253.425781 177.28125 258.113281 L 177.28125 355.863281 C 177.28125 360.550781 181.054688 364.324219 185.742188 364.324219 L 189.191406 364.324219 C 193.875 364.324219 197.648438 360.550781 197.648438 355.863281 L 197.648438 258.113281 C 197.648438 253.425781 193.875 249.652344 189.191406 249.652344 Z M 185.742188 249.652344 " fill-opacity="1" fill-rule="nonzero"/><path fill="#545454" d="M 69.632812 318.832031 C 66.640625 318.832031 63.90625 317.660156 61.824219 315.578125 L 59.351562 313.105469 C 57.269531 311.023438 56.097656 308.222656 56.097656 305.296875 C 56.097656 302.300781 57.269531 299.570312 59.351562 297.484375 L 128.46875 228.367188 C 130.550781 226.285156 133.347656 225.113281 136.277344 225.113281 C 139.273438 225.113281 142.003906 226.285156 144.085938 228.367188 L 146.5625 230.84375 C 150.855469 235.136719 150.855469 242.167969 146.5625 246.527344 L 77.445312 315.644531 C 75.359375 317.726562 72.628906 318.832031 69.632812 318.832031 Z M 136.34375 227.71875 C 134.066406 227.71875 131.917969 228.5625 130.355469 230.191406 L 61.171875 299.308594 C 59.613281 300.871094 58.699219 303.019531 58.699219 305.296875 C 58.699219 307.574219 59.546875 309.722656 61.171875 311.285156 L 63.644531 313.757812 C 66.835938 316.945312 72.433594 316.945312 75.621094 313.757812 L 144.738281 244.640625 C 148.058594 241.320312 148.058594 235.984375 144.738281 232.664062 L 142.265625 230.191406 C 140.703125 228.628906 138.621094 227.71875 136.34375 227.71875 Z M 136.34375 227.71875 " fill-opacity="1" fill-rule="nonzero"/><path fill="#545454" d="M 116.882812 200.320312 L 19.066406 200.320312 C 12.949219 200.320312 8 195.371094 8 189.253906 L 8 185.804688 C 8 179.6875 12.949219 174.742188 19.066406 174.742188 L 116.820312 174.742188 C 122.9375 174.742188 127.882812 179.6875 127.882812 185.804688 L 127.882812 189.253906 C 127.949219 195.308594 123 200.320312 116.882812 200.320312 Z M 19.066406 177.28125 C 14.378906 177.28125 10.605469 181.054688 10.605469 185.742188 L 10.605469 189.191406 C 10.605469 193.875 14.378906 197.648438 19.066406 197.648438 L 116.820312 197.648438 C 121.503906 197.648438 125.277344 193.875 125.277344 189.191406 L 125.277344 185.742188 C 125.277344 181.054688 121.503906 177.28125 116.820312 177.28125 Z M 19.066406 177.28125 " fill-opacity="1" fill-rule="nonzero"/><path fill="#545454" d="M 136.34375 149.816406 C 133.347656 149.816406 130.617188 148.644531 128.53125 146.5625 L 59.351562 77.445312 C 57.269531 75.359375 56.097656 72.5625 56.097656 69.632812 C 56.097656 66.640625 57.269531 63.90625 59.351562 61.824219 L 61.824219 59.351562 C 63.90625 57.269531 66.707031 56.097656 69.632812 56.097656 C 72.628906 56.097656 75.359375 57.269531 77.445312 59.351562 L 146.625 128.46875 C 150.921875 132.761719 150.921875 139.792969 146.625 144.152344 L 144.152344 146.625 C 142.070312 148.707031 139.273438 149.816406 136.34375 149.816406 Z M 69.632812 58.699219 C 67.355469 58.699219 65.207031 59.546875 63.644531 61.171875 L 61.171875 63.644531 C 59.613281 65.207031 58.699219 67.355469 58.699219 69.632812 C 58.699219 71.910156 59.546875 74.058594 61.171875 75.621094 L 130.355469 144.738281 C 133.542969 147.925781 139.140625 147.925781 142.332031 144.738281 L 144.804688 142.265625 C 148.121094 138.945312 148.121094 133.609375 144.804688 130.289062 L 75.621094 61.171875 C 74.058594 59.613281 71.910156 58.699219 69.632812 58.699219 Z M 69.632812 58.699219 " fill-opacity="1" fill-rule="nonzero"/></svg>