<svg xmlns="http://www.w3.org/2000/svg" xmlns:xlink="http://www.w3.org/1999/xlink" width="500" zoomAndPan="magnify" viewBox="0 0 375 374.999991" height="500" preserveAspectRatio="xMidYMid meet" version="1.0"><defs><clipPath id="98062ceecb"><path d="M 2.925781 2.925781 L 371.925781 2.925781 L 371.925781 371.925781 L 2.925781 371.925781 Z M 2.925781 2.925781 " clip-rule="nonzero"/></clipPath><clipPath id="380cc87bda"><path d="M 173 0.925781 L 197 0.925781 L 197 109 L 173 109 Z M 173 0.925781 " clip-rule="nonzero"/></clipPath><clipPath id="f0af9f9fa2"><path d="M 1.066406 174 L 109 174 L 109 198 L 1.066406 198 Z M 1.066406 174 " clip-rule="nonzero"/></clipPath><clipPath id="fdc178b9f3"><path d="M 173 262 L 197 262 L 197 369.925781 L 173 369.925781 Z M 173 262 " clip-rule="nonzero"/></clipPath><clipPath id="bf99c7f70b"><path d="M 262 174 L 369.925781 174 L 369.925781 198 L 262 198 Z M 262 174 " clip-rule="nonzero"/></clipPath><clipPath id="339b91b672"><rect x="0" width="370" y="0" height="370"/></clipPath></defs><g clip-path="url(#98062ceecb)"><g transform="matrix(1, 0, 0, 1, 2, 2)"><g clip-path="url(#339b91b672)"><g clip-path="url(#380cc87bda)"><path fill="#737373" d="M 196.917969 12.453125 C 196.917969 6.117188 191.773438 0.976562 185.441406 0.976562 C 179.109375 0.976562 173.96875 6.117188 173.96875 12.453125 L 173.96875 96.730469 C 173.96875 103.0625 179.109375 108.203125 185.441406 108.203125 C 191.773438 108.203125 196.917969 103.0625 196.917969 96.730469 Z M 196.917969 12.453125 " fill-opacity="1" fill-rule="evenodd"/></g><path fill="#737373" d="M 108.828125 29.90625 C 105.664062 24.421875 98.640625 22.539062 93.15625 25.707031 C 87.667969 28.871094 85.789062 35.894531 88.953125 41.378906 L 131.09375 114.367188 C 134.257812 119.851562 141.28125 121.734375 146.765625 118.566406 C 152.25 115.398438 154.132812 108.375 150.96875 102.890625 Z M 108.828125 29.90625 " fill-opacity="1" fill-rule="evenodd"/><path fill="#737373" d="M 41.269531 89.0625 C 35.785156 85.898438 28.761719 87.78125 25.597656 93.265625 C 22.429688 98.75 24.308594 105.773438 29.796875 108.941406 L 102.78125 151.078125 C 108.265625 154.246094 115.289062 152.363281 118.457031 146.878906 C 121.621094 141.394531 119.742188 134.371094 114.257812 131.203125 Z M 41.269531 89.0625 " fill-opacity="1" fill-rule="evenodd"/><g clip-path="url(#f0af9f9fa2)"><path fill="#737373" d="M 12.339844 174.078125 C 6.007812 174.078125 0.867188 179.21875 0.867188 185.550781 C 0.867188 191.886719 6.007812 197.027344 12.339844 197.027344 L 96.617188 197.027344 C 102.953125 197.027344 108.09375 191.886719 108.09375 185.550781 C 108.09375 179.21875 102.953125 174.078125 96.617188 174.078125 Z M 12.339844 174.078125 " fill-opacity="1" fill-rule="evenodd"/></g><path fill="#737373" d="M 29.796875 262.164062 C 24.3125 265.332031 22.429688 272.355469 25.597656 277.839844 C 28.765625 283.324219 35.789062 285.207031 41.273438 282.042969 L 114.257812 239.902344 C 119.742188 236.734375 121.625 229.710938 118.457031 224.226562 C 115.292969 218.742188 108.269531 216.859375 102.78125 220.027344 Z M 29.796875 262.164062 " fill-opacity="1" fill-rule="evenodd"/><path fill="#737373" d="M 88.953125 329.722656 C 85.785156 335.207031 87.667969 342.230469 93.152344 345.398438 C 98.636719 348.566406 105.660156 346.683594 108.828125 341.199219 L 150.96875 268.214844 C 154.132812 262.726562 152.25 255.703125 146.765625 252.539062 C 141.28125 249.371094 134.257812 251.253906 131.089844 256.738281 Z M 88.953125 329.722656 " fill-opacity="1" fill-rule="evenodd"/><g clip-path="url(#fdc178b9f3)"><path fill="#737373" d="M 196.917969 274.375 C 196.917969 268.042969 191.773438 262.902344 185.441406 262.902344 C 179.109375 262.902344 173.96875 268.042969 173.96875 274.375 L 173.96875 358.652344 C 173.96875 364.984375 179.109375 370.128906 185.441406 370.128906 C 191.773438 370.128906 196.917969 364.984375 196.917969 358.652344 Z M 196.917969 274.375 " fill-opacity="1" fill-rule="evenodd"/></g><path fill="#737373" d="M 239.792969 256.738281 C 236.625 251.253906 229.601562 249.371094 224.117188 252.539062 C 218.632812 255.703125 216.75 262.726562 219.914062 268.210938 L 262.054688 341.199219 C 265.222656 346.683594 272.246094 348.566406 277.730469 345.398438 C 283.214844 342.230469 285.097656 335.207031 281.929688 329.722656 Z M 239.792969 256.738281 " fill-opacity="1" fill-rule="evenodd"/><path fill="#737373" d="M 268.105469 220.023438 C 262.617188 216.859375 255.597656 218.742188 252.429688 224.226562 C 249.261719 229.710938 251.144531 236.734375 256.628906 239.902344 L 329.613281 282.039062 C 335.101562 285.207031 342.125 283.324219 345.289062 277.839844 C 348.457031 272.355469 346.574219 265.332031 341.089844 262.164062 Z M 268.105469 220.023438 " fill-opacity="1" fill-rule="evenodd"/><g clip-path="url(#bf99c7f70b)"><path fill="#737373" d="M 274.265625 174.078125 C 267.933594 174.078125 262.792969 179.21875 262.792969 185.550781 C 262.792969 191.886719 267.933594 197.027344 274.265625 197.027344 L 358.542969 197.027344 C 364.875 197.027344 370.015625 191.886719 370.015625 185.550781 C 370.015625 179.21875 364.875 174.078125 358.542969 174.078125 Z M 274.265625 174.078125 " fill-opacity="1" fill-rule="evenodd"/></g><path fill="#737373" d="M 256.628906 131.203125 C 251.144531 134.367188 249.261719 141.390625 252.429688 146.875 C 255.59375 152.359375 262.617188 154.242188 268.101562 151.078125 L 341.089844 108.9375 C 346.574219 105.769531 348.457031 98.746094 345.289062 93.261719 C 342.121094 87.777344 335.097656 85.894531 329.613281 89.0625 Z M 256.628906 131.203125 " fill-opacity="1" fill-rule="evenodd"/><path fill="#737373" d="M 219.917969 102.890625 C 216.75 108.375 218.632812 115.398438 224.117188 118.566406 C 229.601562 121.730469 236.625 119.851562 239.792969 114.367188 L 281.929688 41.378906 C 285.097656 35.894531 283.214844 28.871094 277.730469 25.703125 C 272.246094 22.539062 265.222656 24.417969 262.054688 29.90625 Z M 219.917969 102.890625 " fill-opacity="1" fill-rule="evenodd"/></g></g></g></svg>